Coordinates
version=1
nRows=10
nColumns=40
inDegrees=yes

Units are S.I. units (second, meters, Newtons, ...)
Angles are in degrees.

endheader
time	pelvis_tilt	pelvis_list	pelvis_rotation	pelvis_tx	pelvis_ty	pelvis_tz	hip_flexion_r	hip_adduction_r	hip_rotation_r	knee_angle_r	knee_angle_r_beta	ankle_angle_r	subtalar_angle_r	mtp_angle_r	hip_flexion_l	hip_adduction_l	hip_rotation_l	knee_angle_l	knee_angle_l_beta	ankle_angle_l	subtalar_angle_l	mtp_angle_l	lumbar_extension	lumbar_bending	lumbar_rotation	arm_flex_r	arm_add_r	arm_rot_r	elbow_flex_r	pro_sup_r	wrist_flex_r	wrist_dev_r	arm_flex_l	arm_add_l	arm_rot_l	elbow_flex_l	pro_sup_l	wrist_flex_l	wrist_dev_l
      0.44000000	      3.28909828	     -3.78303803	     -5.32602889	     -0.48399023	      0.87818239	      0.99054434	    -14.56758981	      2.39314073	    -10.23392794	    -20.11345114	     -0.35104595	     12.34851504	      8.22569486	     -9.90105281	     25.11258553	      7.48273210	     17.33088080	    -16.06392956	     -0.28036846	     -0.15795976	     -6.45175334	    -11.02405021	     -8.91848570	      3.86584857	      7.77805786	     20.27977128	    -13.84372730	     16.39400460	     30.20960061	     89.95437384	      0.00000000	      0.00000000	     -5.84990034	      9.67012794	    -13.44900811	      8.55139882	     89.95437384	      0.00000000	      0.00000000
      0.45000000	      3.11232137	     -3.57544013	     -5.77266242	     -0.47022252	      0.87678906	      0.99046140	    -14.88618888	      1.84766045	     -9.68631114	    -20.79310697	     -0.36290818	     11.83863353	      7.97165641	     -9.68288802	     25.38106601	      7.30382567	     16.56821033	    -16.73988418	     -0.29216610	     -0.19025962	     -6.20752197	    -10.78792130	     -8.67453601	      3.61463106	      7.69150660	     20.36232582	    -13.60191699	     16.24646765	     31.13770459	     89.95437384	      0.00000000	      0.00000000	     -6.89175017	      9.68527194	    -13.46881848	      8.37104985	     89.95437384	      0.00000000	      0.00000000
      0.46000000	      3.13485609	     -3.19945431	     -6.26147586	     -0.45576863	      0.87586329	      0.99023196	    -15.47117254	      1.11376499	     -8.83749943	    -21.36307235	     -0.37285595	     11.02285032	      7.78536562	     -9.54714466	     25.22210546	      6.76882302	     15.17122504	    -17.67082040	     -0.30841400	      0.57236082	     -5.07085185	    -10.50692450	     -8.54102565	      3.14314474	      7.97354749	     19.91778592	    -13.56961602	     15.70268432	     32.50252718	     89.95437384	      0.00000000	      0.00000000	     -7.49623776	      9.60340011	    -14.05894228	      7.59401650	     89.95437384	      0.00000000	      0.00000000
      0.47000000	      3.00946806	     -2.76579000	     -6.63296041	     -0.44100092	      0.87467559	      0.98964263	    -15.76972275	      0.33172340	     -8.17205625	    -22.20658544	     -0.38757803	     10.29314574	      7.43421528	     -9.25509230	     25.23790450	      6.15128357	     13.95611866	    -18.95716594	     -0.33086496	      0.30526561	     -4.76571206	    -10.19103454	     -8.16726168	      2.68151135	      7.83741723	     19.66147616	    -13.35074384	     15.55728924	     33.38688400	     89.95437384	      0.00000000	      0.00000000	     -8.54359193	      9.57976249	    -14.12419223	      7.60419109	     89.95437384	      0.00000000	      0.00000000
      0.48000000	      2.92894337	     -2.30334254	     -6.95077575	     -0.42581870	      0.87359318	      0.98895632	    -16.08811587	     -0.47685167	     -7.60203709	    -23.08458101	     -0.40290195	      9.41468260	      7.06226251	     -8.93389608	     25.13431246	      5.43234014	     12.80190443	    -20.43990285	     -0.35674360	     -0.02526223	     -4.27949758	     -9.83352406	     -7.79147004	      2.17269934	      7.68420312	     19.21581018	    -13.15365572	     15.38763104	     34.37926629	     89.95437384	      0.00000000	      0.00000000	     -9.49846948	      9.52481066	    -14.22846791	      7.56156918	     89.95437384	      0.00000000	      0.00000000
      0.49000000	      3.06641578	     -1.45554218	     -6.99916098	     -0.41029768	      0.87316254	      0.98739359	    -16.57548722	     -1.78178598	     -7.87379073	    -23.98054777	     -0.41853952	      7.91346605	      6.80870713	     -8.68179930	     24.64858615	      3.79035264	     10.91290483	    -21.28023645	     -0.37141019	     -1.69698287	     -0.21510415	     -8.45203715	     -7.58545765	      1.25847635	      7.52552178	     18.38119531	    -13.00510143	     14.59594960	     35.59888918	     89.95437384	      0.00000000	      0.00000000	    -10.12117569	      9.55632325	    -15.92165966	      7.22546023	     89.95437384	      0.00000000	      0.00000000
      0.50000000	      2.94635058	     -1.06111308	     -7.19644425	     -0.39513173	      0.87241132	      0.98662741	    -16.55164204	     -2.43057206	     -7.25147135	    -25.30141591	     -0.44159301	      6.66259811	      6.34814498	     -8.29852421	     24.75825665	      3.16075780	      9.89263215	    -22.64299648	     -0.39519484	     -3.17005724	      0.12301614	     -7.94973913	     -7.18010211	      0.80155648	      7.29755505	     17.79071434	    -12.82111861	     14.52566388	     36.45205307	     89.95437384	      0.00000000	      0.00000000	    -11.02038913	      9.56386934	    -15.95085079	      7.51871706	     89.95437384	      0.00000000	      0.00000000
      0.51000000	      2.59405128	     -0.45854699	     -7.21101760	     -0.38000714	      0.87172876	      0.98515111	    -15.94501577	     -3.38170526	     -7.53070354	    -27.08233932	     -0.47267599	      4.39481886	      5.34671990	     -7.71041572	     25.15202913	      2.34063895	      9.07254639	    -23.80249622	     -0.41543193	     -4.89988740	      0.56760115	     -7.39841753	     -6.48092185	      0.19804594	      6.98033129	     17.02164139	    -12.66385336	     14.35680405	     37.19808687	     89.95437384	      0.00000000	      0.00000000	    -11.56168471	      9.41993403	    -16.29887038	      7.17867968	     89.95437384	      0.00000000	      0.00000000
      0.52000000	      2.27812710	      0.16344772	     -7.26198280	     -0.36486770	      0.87133711	      0.98387927	    -15.10323263	     -4.33810335	     -7.68356024	    -29.26539219	     -0.51077745	      2.09312182	      4.34989437	     -7.05610461	     25.51718204	      1.66974699	      9.06672293	    -25.26990637	     -0.44104307	     -4.23630311	      1.42113523	     -7.04688197	     -5.83833977	     -0.45427291	      6.67999324	     16.24139315	    -12.40095381	     14.05176602	     37.74622193	     89.95437384	      0.00000000	      0.00000000	    -12.15053686	      9.37717495	    -16.59566235	      7.20291091	     89.95437384	      0.00000000	      0.00000000
      0.53000000	      2.10010236	      0.62751407	     -7.27819483	     -0.34995464	      0.87132105	      0.98257607	    -14.14980337	     -5.16516771	     -7.97289570	    -31.75936218	     -0.55430544	     -0.70883181	      3.23057270	     -6.31581415	     25.66165065	      1.14252096	      9.37711114	    -27.00999342	     -0.47141332	     -2.87886040	      1.82141223	     -6.82771734	     -5.40845272	     -0.92719201	      6.37654585	     15.52216013	    -12.18192321	     13.83823234	     38.09944916	     89.95437384	      0.00000000	      0.00000000	    -12.54957838	      9.28173074	    -16.75048992	      7.19787429	     89.95437384	      0.00000000	      0.00000000
